<svg xmlns="http://www.w3.org/2000/svg" viewBox="0 0 900 600">
  <rect width="900" height="600" fill="#fff"/>
  <g transform="translate(450 300)">
    <path fill="#cd2e3a" d="M0-120a120 120 0 0 1 0 240 60 60 0 0 1 0-120 60 60 0 0 0 0-120Z"/>
    <path fill="#0047a0" d="M0 120a120 120 0 0 1 0-240 60 60 0 0 1 0 120 60 60 0 0 0 0 120Z"/>
  </g>
  <g stroke="#000" stroke-width="34">
    <g transform="translate(205 125) rotate(-56)">
      <path d="M-90 0H90M-90 58H90M-90 116H90"/>
    </g>
    <g transform="translate(695 125) rotate(56)">
      <path d="M-90 0H90M-90 58H-18M18 58H90M-90 116H90"/>
    </g>
    <g transform="translate(205 475) rotate(56)">
      <path d="M-90 0H90M-90 58H-18M18 58H90M-90 116H-18M18 116H90"/>
    </g>
    <g transform="translate(695 475) rotate(-56)">
      <path d="M-90 0H-18M18 0H90M-90 58H90M-90 116H-18M18 116H90"/>
    </g>
  </g>
</svg>
